{
 "cells": [
  {
   "cell_type": "code",
   "execution_count": 40,
   "id": "a66a0709",
   "metadata": {},
   "outputs": [],
   "source": [
    "import imageio\n",
    "from glob import glob\n",
    "import os.path as osp\n",
    "import matplotlib.pyplot as plt\n",
    "import numpy as np\n",
    "import subprocess\n",
    "\n",
    "from tqdm.auto import tqdm"
   ]
  },
  {
   "cell_type": "code",
   "execution_count": 29,
   "id": "36872417",
   "metadata": {},
   "outputs": [],
   "source": [
    "def bbox(img):\n",
    "    rows = np.any(img, axis=1)\n",
    "    cols = np.any(img, axis=0)\n",
    "    rmin, rmax = np.where(rows)[0][[0, -1]]\n",
    "    cmin, cmax = np.where(cols)[0][[0, -1]]\n",
    "\n",
    "    return cmin, rmin, cmax, rmax"
   ]
  },
  {
   "cell_type": "code",
   "execution_count": 42,
   "id": "d61068ee",
   "metadata": {},
   "outputs": [],
   "source": [
    "def crop_video(input_path, output_path, bbox):\n",
    "    x1, y1, x2, y2 = bbox\n",
    "    cmd = [\n",
    "        \"ffmpeg\",\n",
    "        \"-i\",\n",
    "        input_path,\n",
    "        \"-filter:v\",\n",
    "        f\"crop={x2-x1}:{y2-y1}:{x1}:{y1}\",\n",
    "        \"-y\",\n",
    "        output_path,\n",
    "    ]\n",
    "    subprocess.call(cmd)"
   ]
  },
  {
   "cell_type": "code",
   "execution_count": 62,
   "id": "299bb9b2",
   "metadata": {},
   "outputs": [],
   "source": [
    "video_dir = \"self_captures\"\n",
    "output_dir = \"self_captures_cropped\""
   ]
  },
  {
   "cell_type": "code",
   "execution_count": 85,
   "id": "c5ff1991",
   "metadata": {},
   "outputs": [],
   "source": [
    "video_paths = sorted(glob(osp.join(video_dir, \"*.mp4\")))"
   ]
  },
  {
   "cell_type": "code",
   "execution_count": 86,
   "id": "9a5af0fa",
   "metadata": {},
   "outputs": [
    {
     "data": {
      "application/json": {
       "ascii": false,
       "bar_format": null,
       "colour": null,
       "elapsed": 0.020891904830932617,
       "initial": 0,
       "n": 0,
       "ncols": null,
       "nrows": 70,
       "postfix": null,
       "prefix": "",
       "rate": null,
       "total": 7,
       "unit": "it",
       "unit_divisor": 1000,
       "unit_scale": false
      },
      "application/vnd.jupyter.widget-view+json": {
       "model_id": "0fe45a45f6364c8f9c5e6c90a6b7f503",
       "version_major": 2,
       "version_minor": 0
      },
      "text/plain": [
       "  0%|          | 0/7 [00:00<?, ?it/s]"
      ]
     },
     "metadata": {},
     "output_type": "display_data"
    }
   ],
   "source": [
    "deltas = []\n",
    "for path in tqdm(video_paths):\n",
    "    min_y = np.inf\n",
    "    max_y = 0\n",
    "    for frame in imageio.imiter(path):\n",
    "        mask = np.all(frame < 240, axis=2)\n",
    "        x1, y1, x2, y2 = bbox(mask)\n",
    "        min_y = min(y1, min_y)\n",
    "        max_y = max(y2, max_y)\n",
    "\n",
    "    delta = max_y - min_y\n",
    "    deltas.append(delta)"
   ]
  },
  {
   "cell_type": "code",
   "execution_count": 87,
   "id": "5c057683",
   "metadata": {},
   "outputs": [
    {
     "data": {
      "text/plain": [
       "779"
      ]
     },
     "execution_count": 87,
     "metadata": {},
     "output_type": "execute_result"
    }
   ],
   "source": [
    "max(deltas)"
   ]
  },
  {
   "cell_type": "code",
   "execution_count": 88,
   "id": "ae88fb98",
   "metadata": {},
   "outputs": [],
   "source": [
    "image_size = 1024\n",
    "d = 156\n",
    "d = 350"
   ]
  },
  {
   "cell_type": "code",
   "execution_count": 89,
   "id": "5ce021c1",
   "metadata": {},
   "outputs": [
    {
     "data": {
      "application/json": {
       "ascii": false,
       "bar_format": null,
       "colour": null,
       "elapsed": 0.020750045776367188,
       "initial": 0,
       "n": 0,
       "ncols": null,
       "nrows": 70,
       "postfix": null,
       "prefix": "",
       "rate": null,
       "total": 7,
       "unit": "it",
       "unit_divisor": 1000,
       "unit_scale": false
      },
      "application/vnd.jupyter.widget-view+json": {
       "model_id": "6ea06236b24c47afbfc9c2a36860028e",
       "version_major": 2,
       "version_minor": 0
      },
      "text/plain": [
       "  0%|          | 0/7 [00:00<?, ?it/s]"
      ]
     },
     "metadata": {},
     "output_type": "display_data"
    },
    {
     "name": "stderr",
     "output_type": "stream",
     "text": [
      "ffmpeg version 5.1.2 Copyright (c) 2000-2022 the FFmpeg developers\n",
      "  built with clang version 14.0.4\n",
      "  configuration: --prefix=/Users/runner/miniforge3/conda-bld/ffmpeg_1666310275774/_h_env_placehold_placehold_placehold_placehold_placehold_placehold_placehold_placehold_placehold_placehold_placehold_placehold_placehold_placehold_placehold_placehold_placehold_placehold_placehold_pl --cc=arm64-apple-darwin20.0.0-clang --cxx=arm64-apple-darwin20.0.0-clang++ --nm=arm64-apple-darwin20.0.0-nm --ar=arm64-apple-darwin20.0.0-ar --disable-doc --disable-openssl --enable-demuxer=dash --enable-hardcoded-tables --enable-libfreetype --enable-libfontconfig --enable-libopenh264 --enable-cross-compile --arch=arm64 --target-os=darwin --cross-prefix=arm64-apple-darwin20.0.0- --host-cc=/Users/runner/miniforge3/conda-bld/ffmpeg_1666310275774/_build_env/bin/x86_64-apple-darwin13.4.0-clang --enable-neon --enable-gnutls --enable-libmp3lame --enable-libvpx --enable-pthreads --enable-gpl --enable-libx264 --enable-libx265 --enable-libaom --enable-libsvtav1 --enable-libxml2 --enable-pic --enable-shared --disable-static --enable-version3 --enable-zlib --pkg-config=/Users/runner/miniforge3/conda-bld/ffmpeg_1666310275774/_build_env/bin/pkg-config\n",
      "  libavutil      57. 28.100 / 57. 28.100\n",
      "  libavcodec     59. 37.100 / 59. 37.100\n",
      "  libavformat    59. 27.100 / 59. 27.100\n",
      "  libavdevice    59.  7.100 / 59.  7.100\n",
      "  libavfilter     8. 44.100 /  8. 44.100\n",
      "  libswscale      6.  7.100 /  6.  7.100\n",
      "  libswresample   4.  7.100 /  4.  7.100\n",
      "  libpostproc    56.  6.100 / 56.  6.100\n",
      "Input #0, mov,mp4,m4a,3gp,3g2,mj2, from 'self_captures/controller_10.mp4':\n",
      "  Metadata:\n",
      "    major_brand     : isom\n",
      "    minor_version   : 512\n",
      "    compatible_brands: isomiso2avc1mp41\n",
      "    encoder         : Lavf58.29.100\n",
      "  Duration: 00:00:09.00, start: 0.000000, bitrate: 937 kb/s\n",
      "  Stream #0:0[0x1](und): Video: h264 (High) (avc1 / 0x31637661), yuv420p(progressive), 1024x1024, 930 kb/s, 60 fps, 60 tbr, 15360 tbn (default)\n",
      "    Metadata:\n",
      "      handler_name    : VideoHandler\n",
      "      vendor_id       : [0][0][0][0]\n",
      "Stream mapping:\n",
      "  Stream #0:0 -> #0:0 (h264 (native) -> h264 (libx264))\n",
      "Press [q] to stop, [?] for help\n",
      "[libx264 @ 0x126605d50] using cpu capabilities: ARMv8 NEON\n",
      "[libx264 @ 0x126605d50] profile High, level 3.2, 4:2:0, 8-bit\n",
      "[libx264 @ 0x126605d50] 264 - core 164 r3095 baee400 - H.264/MPEG-4 AVC codec - Copyleft 2003-2022 - http://www.videolan.org/x264.html - options: cabac=1 ref=3 deblock=1:0:0 analyse=0x3:0x113 me=hex subme=7 psy=1 psy_rd=1.00:0.00 mixed_ref=1 me_range=16 chroma_me=1 trellis=1 8x8dct=1 cqm=0 deadzone=21,11 fast_pskip=1 chroma_qp_offset=-2 threads=15 lookahead_threads=2 sliced_threads=0 nr=0 decimate=1 interlaced=0 bluray_compat=0 constrained_intra=0 bframes=3 b_pyramid=2 b_adapt=1 b_bias=0 direct=1 weightb=1 open_gop=0 weightp=2 keyint=250 keyint_min=25 scenecut=40 intra_refresh=0 rc_lookahead=40 rc=crf mbtree=1 crf=23.0 qcomp=0.60 qpmin=0 qpmax=69 qpstep=4 ip_ratio=1.40 aq=1:1.00\n",
      "Output #0, mp4, to 'self_captures_cropped/controller_10.mp4':\n",
      "  Metadata:\n",
      "    major_brand     : isom\n",
      "    minor_version   : 512\n",
      "    compatible_brands: isomiso2avc1mp41\n",
      "    encoder         : Lavf59.27.100\n",
      "  Stream #0:0(und): Video: h264 (avc1 / 0x31637661), yuv420p(progressive), 1024x700, q=2-31, 60 fps, 15360 tbn (default)\n",
      "    Metadata:\n",
      "      handler_name    : VideoHandler\n",
      "      vendor_id       : [0][0][0][0]\n",
      "      encoder         : Lavc59.37.100 libx264\n",
      "    Side data:\n",
      "      cpb: bitrate max/min/avg: 0/0/0 buffer size: 0 vbv_delay: N/A\n",
      "frame=  540 fps=0.0 q=-1.0 Lsize=     978kB time=00:00:08.95 bitrate= 894.9kbits/s speed=9.99x    \n",
      "video:971kB audio:0kB subtitle:0kB other streams:0kB global headers:0kB muxing overhead: 0.734483%\n",
      "[libx264 @ 0x126605d50] frame I:3     Avg QP:13.63  size: 15693\n",
      "[libx264 @ 0x126605d50] frame P:142   Avg QP:24.06  size:  4268\n",
      "[libx264 @ 0x126605d50] frame B:395   Avg QP:29.76  size:   861\n",
      "[libx264 @ 0x126605d50] consecutive B-frames:  0.7%  4.1%  3.3% 91.9%\n",
      "[libx264 @ 0x126605d50] mb I  I16..4: 74.3% 17.0%  8.7%\n",
      "[libx264 @ 0x126605d50] mb P  I16..4:  0.2%  1.0%  0.2%  P16..4:  6.0%  3.5%  2.8%  0.0%  0.0%    skip:86.3%\n",
      "[libx264 @ 0x126605d50] mb B  I16..4:  0.0%  0.0%  0.0%  B16..8:  7.5%  1.8%  0.3%  direct: 0.1%  skip:90.3%  L0:41.4% L1:46.5% BI:12.1%\n",
      "[libx264 @ 0x126605d50] 8x8 transform intra:38.4% inter:33.1%\n",
      "[libx264 @ 0x126605d50] coded y,uvDC,uvAC intra: 10.2% 20.8% 18.7% inter: 1.2% 2.7% 2.0%\n",
      "[libx264 @ 0x126605d50] i16 v,h,dc,p: 92%  4%  4%  0%\n",
      "[libx264 @ 0x126605d50] i8 v,h,dc,ddl,ddr,vr,hd,vl,hu: 10%  5% 82%  0%  0%  0%  0%  0%  0%\n",
      "[libx264 @ 0x126605d50] i4 v,h,dc,ddl,ddr,vr,hd,vl,hu: 20% 15% 32%  5%  5%  6%  6%  5%  6%\n",
      "[libx264 @ 0x126605d50] i8c dc,h,v,p: 77% 11% 11%  1%\n",
      "[libx264 @ 0x126605d50] Weighted P-Frames: Y:0.0% UV:0.0%\n",
      "[libx264 @ 0x126605d50] ref P L0: 76.1%  8.7% 10.5%  4.7%\n",
      "[libx264 @ 0x126605d50] ref B L0: 90.9%  7.9%  1.2%\n",
      "[libx264 @ 0x126605d50] ref B L1: 96.5%  3.5%\n",
      "[libx264 @ 0x126605d50] kb/s:882.85\n",
      "ffmpeg version 5.1.2 Copyright (c) 2000-2022 the FFmpeg developers\n",
      "  built with clang version 14.0.4\n",
      "  configuration: --prefix=/Users/runner/miniforge3/conda-bld/ffmpeg_1666310275774/_h_env_placehold_placehold_placehold_placehold_placehold_placehold_placehold_placehold_placehold_placehold_placehold_placehold_placehold_placehold_placehold_placehold_placehold_placehold_placehold_pl --cc=arm64-apple-darwin20.0.0-clang --cxx=arm64-apple-darwin20.0.0-clang++ --nm=arm64-apple-darwin20.0.0-nm --ar=arm64-apple-darwin20.0.0-ar --disable-doc --disable-openssl --enable-demuxer=dash --enable-hardcoded-tables --enable-libfreetype --enable-libfontconfig --enable-libopenh264 --enable-cross-compile --arch=arm64 --target-os=darwin --cross-prefix=arm64-apple-darwin20.0.0- --host-cc=/Users/runner/miniforge3/conda-bld/ffmpeg_1666310275774/_build_env/bin/x86_64-apple-darwin13.4.0-clang --enable-neon --enable-gnutls --enable-libmp3lame --enable-libvpx --enable-pthreads --enable-gpl --enable-libx264 --enable-libx265 --enable-libaom --enable-libsvtav1 --enable-libxml2 --enable-pic --enable-shared --disable-static --enable-version3 --enable-zlib --pkg-config=/Users/runner/miniforge3/conda-bld/ffmpeg_1666310275774/_build_env/bin/pkg-config\n",
      "  libavutil      57. 28.100 / 57. 28.100\n",
      "  libavcodec     59. 37.100 / 59. 37.100\n",
      "  libavformat    59. 27.100 / 59. 27.100\n",
      "  libavdevice    59.  7.100 / 59.  7.100\n",
      "  libavfilter     8. 44.100 /  8. 44.100\n",
      "  libswscale      6.  7.100 /  6.  7.100\n",
      "  libswresample   4.  7.100 /  4.  7.100\n",
      "  libpostproc    56.  6.100 / 56.  6.100\n",
      "Input #0, mov,mp4,m4a,3gp,3g2,mj2, from 'self_captures/espresso_15.mp4':\n",
      "  Metadata:\n",
      "    major_brand     : isom\n",
      "    minor_version   : 512\n",
      "    compatible_brands: isomiso2avc1mp41\n",
      "    encoder         : Lavf58.29.100\n",
      "  Duration: 00:00:09.00, start: 0.000000, bitrate: 773 kb/s\n",
      "  Stream #0:0[0x1](und): Video: h264 (High) (avc1 / 0x31637661), yuv420p(progressive), 1024x1024, 766 kb/s, 60 fps, 60 tbr, 15360 tbn (default)\n",
      "    Metadata:\n",
      "      handler_name    : VideoHandler\n",
      "      vendor_id       : [0][0][0][0]\n",
      "Stream mapping:\n",
      "  Stream #0:0 -> #0:0 (h264 (native) -> h264 (libx264))\n",
      "Press [q] to stop, [?] for help\n",
      "[libx264 @ 0x1547054d0] using cpu capabilities: ARMv8 NEON\n",
      "[libx264 @ 0x1547054d0] profile High, level 3.2, 4:2:0, 8-bit\n",
      "[libx264 @ 0x1547054d0] 264 - core 164 r3095 baee400 - H.264/MPEG-4 AVC codec - Copyleft 2003-2022 - http://www.videolan.org/x264.html - options: cabac=1 ref=3 deblock=1:0:0 analyse=0x3:0x113 me=hex subme=7 psy=1 psy_rd=1.00:0.00 mixed_ref=1 me_range=16 chroma_me=1 trellis=1 8x8dct=1 cqm=0 deadzone=21,11 fast_pskip=1 chroma_qp_offset=-2 threads=15 lookahead_threads=2 sliced_threads=0 nr=0 decimate=1 interlaced=0 bluray_compat=0 constrained_intra=0 bframes=3 b_pyramid=2 b_adapt=1 b_bias=0 direct=1 weightb=1 open_gop=0 weightp=2 keyint=250 keyint_min=25 scenecut=40 intra_refresh=0 rc_lookahead=40 rc=crf mbtree=1 crf=23.0 qcomp=0.60 qpmin=0 qpmax=69 qpstep=4 ip_ratio=1.40 aq=1:1.00\n",
      "Output #0, mp4, to 'self_captures_cropped/espresso_15.mp4':\n",
      "  Metadata:\n",
      "    major_brand     : isom\n",
      "    minor_version   : 512\n",
      "    compatible_brands: isomiso2avc1mp41\n",
      "    encoder         : Lavf59.27.100\n",
      "  Stream #0:0(und): Video: h264 (avc1 / 0x31637661), yuv420p(progressive), 1024x700, q=2-31, 60 fps, 15360 tbn (default)\n",
      "    Metadata:\n",
      "      handler_name    : VideoHandler\n",
      "      vendor_id       : [0][0][0][0]\n",
      "      encoder         : Lavc59.37.100 libx264\n",
      "    Side data:\n",
      "      cpb: bitrate max/min/avg: 0/0/0 buffer size: 0 vbv_delay: N/A\n"
     ]
    },
    {
     "name": "stderr",
     "output_type": "stream",
     "text": [
      "frame=  540 fps=0.0 q=-1.0 Lsize=     780kB time=00:00:08.95 bitrate= 714.3kbits/s speed=12.9x    \n",
      "video:773kB audio:0kB subtitle:0kB other streams:0kB global headers:0kB muxing overhead: 0.925020%\n",
      "[libx264 @ 0x1547054d0] frame I:3     Avg QP:15.41  size: 13331\n",
      "[libx264 @ 0x1547054d0] frame P:138   Avg QP:24.80  size:  3369\n",
      "[libx264 @ 0x1547054d0] frame B:399   Avg QP:29.80  size:   717\n",
      "[libx264 @ 0x1547054d0] consecutive B-frames:  0.7%  1.9%  1.1% 96.3%\n",
      "[libx264 @ 0x1547054d0] mb I  I16..4: 58.7% 34.3%  7.0%\n",
      "[libx264 @ 0x1547054d0] mb P  I16..4:  0.2%  0.8%  0.1%  P16..4:  4.4%  3.3%  3.3%  0.0%  0.0%    skip:88.1%\n",
      "[libx264 @ 0x1547054d0] mb B  I16..4:  0.0%  0.0%  0.0%  B16..8:  5.4%  2.3%  0.4%  direct: 0.2%  skip:91.7%  L0:41.5% L1:47.8% BI:10.7%\n",
      "[libx264 @ 0x1547054d0] 8x8 transform intra:47.0% inter:41.0%\n",
      "[libx264 @ 0x1547054d0] coded y,uvDC,uvAC intra: 7.4% 17.0% 14.9% inter: 0.8% 2.4% 1.8%\n",
      "[libx264 @ 0x1547054d0] i16 v,h,dc,p: 92%  4%  4%  0%\n",
      "[libx264 @ 0x1547054d0] i8 v,h,dc,ddl,ddr,vr,hd,vl,hu: 31%  4% 62%  0%  0%  0%  0%  0%  0%\n",
      "[libx264 @ 0x1547054d0] i4 v,h,dc,ddl,ddr,vr,hd,vl,hu: 22% 18% 31%  4%  5%  6%  4%  5%  4%\n",
      "[libx264 @ 0x1547054d0] i8c dc,h,v,p: 82%  8%  9%  1%\n",
      "[libx264 @ 0x1547054d0] Weighted P-Frames: Y:0.0% UV:0.0%\n",
      "[libx264 @ 0x1547054d0] ref P L0: 75.9%  8.9% 10.7%  4.4%\n",
      "[libx264 @ 0x1547054d0] ref B L0: 90.7%  8.0%  1.3%\n",
      "[libx264 @ 0x1547054d0] ref B L1: 96.4%  3.6%\n",
      "[libx264 @ 0x1547054d0] kb/s:703.18\n",
      "ffmpeg version 5.1.2 Copyright (c) 2000-2022 the FFmpeg developers\n",
      "  built with clang version 14.0.4\n",
      "  configuration: --prefix=/Users/runner/miniforge3/conda-bld/ffmpeg_1666310275774/_h_env_placehold_placehold_placehold_placehold_placehold_placehold_placehold_placehold_placehold_placehold_placehold_placehold_placehold_placehold_placehold_placehold_placehold_placehold_placehold_pl --cc=arm64-apple-darwin20.0.0-clang --cxx=arm64-apple-darwin20.0.0-clang++ --nm=arm64-apple-darwin20.0.0-nm --ar=arm64-apple-darwin20.0.0-ar --disable-doc --disable-openssl --enable-demuxer=dash --enable-hardcoded-tables --enable-libfreetype --enable-libfontconfig --enable-libopenh264 --enable-cross-compile --arch=arm64 --target-os=darwin --cross-prefix=arm64-apple-darwin20.0.0- --host-cc=/Users/runner/miniforge3/conda-bld/ffmpeg_1666310275774/_build_env/bin/x86_64-apple-darwin13.4.0-clang --enable-neon --enable-gnutls --enable-libmp3lame --enable-libvpx --enable-pthreads --enable-gpl --enable-libx264 --enable-libx265 --enable-libaom --enable-libsvtav1 --enable-libxml2 --enable-pic --enable-shared --disable-static --enable-version3 --enable-zlib --pkg-config=/Users/runner/miniforge3/conda-bld/ffmpeg_1666310275774/_build_env/bin/pkg-config\n",
      "  libavutil      57. 28.100 / 57. 28.100\n",
      "  libavcodec     59. 37.100 / 59. 37.100\n",
      "  libavformat    59. 27.100 / 59. 27.100\n",
      "  libavdevice    59.  7.100 / 59.  7.100\n",
      "  libavfilter     8. 44.100 /  8. 44.100\n",
      "  libswscale      6.  7.100 /  6.  7.100\n",
      "  libswresample   4.  7.100 /  4.  7.100\n",
      "  libpostproc    56.  6.100 / 56.  6.100\n",
      "Input #0, mov,mp4,m4a,3gp,3g2,mj2, from 'self_captures/football_15.mp4':\n",
      "  Metadata:\n",
      "    major_brand     : isom\n",
      "    minor_version   : 512\n",
      "    compatible_brands: isomiso2avc1mp41\n",
      "    encoder         : Lavf58.29.100\n",
      "  Duration: 00:00:09.00, start: 0.000000, bitrate: 760 kb/s\n",
      "  Stream #0:0[0x1](und): Video: h264 (High) (avc1 / 0x31637661), yuv420p(progressive), 1024x1024, 754 kb/s, 60 fps, 60 tbr, 15360 tbn (default)\n",
      "    Metadata:\n",
      "      handler_name    : VideoHandler\n",
      "      vendor_id       : [0][0][0][0]\n",
      "Stream mapping:\n",
      "  Stream #0:0 -> #0:0 (h264 (native) -> h264 (libx264))\n",
      "Press [q] to stop, [?] for help\n",
      "[libx264 @ 0x150f06270] using cpu capabilities: ARMv8 NEON\n",
      "[libx264 @ 0x150f06270] profile High, level 3.2, 4:2:0, 8-bit\n",
      "[libx264 @ 0x150f06270] 264 - core 164 r3095 baee400 - H.264/MPEG-4 AVC codec - Copyleft 2003-2022 - http://www.videolan.org/x264.html - options: cabac=1 ref=3 deblock=1:0:0 analyse=0x3:0x113 me=hex subme=7 psy=1 psy_rd=1.00:0.00 mixed_ref=1 me_range=16 chroma_me=1 trellis=1 8x8dct=1 cqm=0 deadzone=21,11 fast_pskip=1 chroma_qp_offset=-2 threads=15 lookahead_threads=2 sliced_threads=0 nr=0 decimate=1 interlaced=0 bluray_compat=0 constrained_intra=0 bframes=3 b_pyramid=2 b_adapt=1 b_bias=0 direct=1 weightb=1 open_gop=0 weightp=2 keyint=250 keyint_min=25 scenecut=40 intra_refresh=0 rc_lookahead=40 rc=crf mbtree=1 crf=23.0 qcomp=0.60 qpmin=0 qpmax=69 qpstep=4 ip_ratio=1.40 aq=1:1.00\n",
      "Output #0, mp4, to 'self_captures_cropped/football_15.mp4':\n",
      "  Metadata:\n",
      "    major_brand     : isom\n",
      "    minor_version   : 512\n",
      "    compatible_brands: isomiso2avc1mp41\n",
      "    encoder         : Lavf59.27.100\n",
      "  Stream #0:0(und): Video: h264 (avc1 / 0x31637661), yuv420p(progressive), 1024x700, q=2-31, 60 fps, 15360 tbn (default)\n",
      "    Metadata:\n",
      "      handler_name    : VideoHandler\n",
      "      vendor_id       : [0][0][0][0]\n",
      "      encoder         : Lavc59.37.100 libx264\n",
      "    Side data:\n",
      "      cpb: bitrate max/min/avg: 0/0/0 buffer size: 0 vbv_delay: N/A\n",
      "frame=  540 fps=0.0 q=-1.0 Lsize=     780kB time=00:00:08.95 bitrate= 713.6kbits/s speed=13.2x    \n",
      "video:773kB audio:0kB subtitle:0kB other streams:0kB global headers:0kB muxing overhead: 0.925832%\n",
      "[libx264 @ 0x150f06270] frame I:3     Avg QP:14.37  size: 12318\n",
      "[libx264 @ 0x150f06270] frame P:137   Avg QP:23.96  size:  3463\n",
      "[libx264 @ 0x150f06270] frame B:400   Avg QP:30.23  size:   698\n",
      "[libx264 @ 0x150f06270] consecutive B-frames:  0.7%  1.1%  1.1% 97.0%\n",
      "[libx264 @ 0x150f06270] mb I  I16..4: 62.4% 30.7%  6.9%\n",
      "[libx264 @ 0x150f06270] mb P  I16..4:  0.1%  0.8%  0.1%  P16..4:  4.6%  2.9%  2.2%  0.0%  0.0%    skip:89.2%\n",
      "[libx264 @ 0x150f06270] mb B  I16..4:  0.0%  0.0%  0.0%  B16..8:  5.9%  1.3%  0.2%  direct: 0.1%  skip:92.5%  L0:39.7% L1:47.1% BI:13.1%\n",
      "[libx264 @ 0x150f06270] 8x8 transform intra:45.7% inter:35.1%\n",
      "[libx264 @ 0x150f06270] coded y,uvDC,uvAC intra: 6.8% 16.4% 14.5% inter: 0.9% 2.6% 2.0%\n",
      "[libx264 @ 0x150f06270] i16 v,h,dc,p: 92%  4%  4%  0%\n",
      "[libx264 @ 0x150f06270] i8 v,h,dc,ddl,ddr,vr,hd,vl,hu: 22% 11% 66%  0%  0%  0%  0%  0%  0%\n",
      "[libx264 @ 0x150f06270] i4 v,h,dc,ddl,ddr,vr,hd,vl,hu: 18% 15% 39%  5%  5%  5%  3%  5%  5%\n",
      "[libx264 @ 0x150f06270] i8c dc,h,v,p: 82%  8% 10%  1%\n",
      "[libx264 @ 0x150f06270] Weighted P-Frames: Y:0.0% UV:0.0%\n",
      "[libx264 @ 0x150f06270] ref P L0: 79.0%  9.0%  8.7%  3.3%\n",
      "[libx264 @ 0x150f06270] ref B L0: 91.9%  7.5%  0.6%\n",
      "[libx264 @ 0x150f06270] ref B L1: 97.0%  3.0%\n",
      "[libx264 @ 0x150f06270] kb/s:702.56\n",
      "ffmpeg version 5.1.2 Copyright (c) 2000-2022 the FFmpeg developers\n",
      "  built with clang version 14.0.4\n",
      "  configuration: --prefix=/Users/runner/miniforge3/conda-bld/ffmpeg_1666310275774/_h_env_placehold_placehold_placehold_placehold_placehold_placehold_placehold_placehold_placehold_placehold_placehold_placehold_placehold_placehold_placehold_placehold_placehold_placehold_placehold_pl --cc=arm64-apple-darwin20.0.0-clang --cxx=arm64-apple-darwin20.0.0-clang++ --nm=arm64-apple-darwin20.0.0-nm --ar=arm64-apple-darwin20.0.0-ar --disable-doc --disable-openssl --enable-demuxer=dash --enable-hardcoded-tables --enable-libfreetype --enable-libfontconfig --enable-libopenh264 --enable-cross-compile --arch=arm64 --target-os=darwin --cross-prefix=arm64-apple-darwin20.0.0- --host-cc=/Users/runner/miniforge3/conda-bld/ffmpeg_1666310275774/_build_env/bin/x86_64-apple-darwin13.4.0-clang --enable-neon --enable-gnutls --enable-libmp3lame --enable-libvpx --enable-pthreads --enable-gpl --enable-libx264 --enable-libx265 --enable-libaom --enable-libsvtav1 --enable-libxml2 --enable-pic --enable-shared --disable-static --enable-version3 --enable-zlib --pkg-config=/Users/runner/miniforge3/conda-bld/ffmpeg_1666310275774/_build_env/bin/pkg-config\n",
      "  libavutil      57. 28.100 / 57. 28.100\n",
      "  libavcodec     59. 37.100 / 59. 37.100\n",
      "  libavformat    59. 27.100 / 59. 27.100\n",
      "  libavdevice    59.  7.100 / 59.  7.100\n",
      "  libavfilter     8. 44.100 /  8. 44.100\n",
      "  libswscale      6.  7.100 /  6.  7.100\n",
      "  libswresample   4.  7.100 /  4.  7.100\n",
      "  libpostproc    56.  6.100 / 56.  6.100\n",
      "Input #0, mov,mp4,m4a,3gp,3g2,mj2, from 'self_captures/gandalf_10.mp4':\n",
      "  Metadata:\n",
      "    major_brand     : isom\n",
      "    minor_version   : 512\n",
      "    compatible_brands: isomiso2avc1mp41\n",
      "    encoder         : Lavf58.29.100\n",
      "  Duration: 00:00:09.00, start: 0.000000, bitrate: 784 kb/s\n",
      "  Stream #0:0[0x1](und): Video: h264 (High) (avc1 / 0x31637661), yuv420p(progressive), 1024x1024, 778 kb/s, 60 fps, 60 tbr, 15360 tbn (default)\n",
      "    Metadata:\n",
      "      handler_name    : VideoHandler\n",
      "      vendor_id       : [0][0][0][0]\n",
      "Stream mapping:\n",
      "  Stream #0:0 -> #0:0 (h264 (native) -> h264 (libx264))\n",
      "Press [q] to stop, [?] for help\n",
      "[libx264 @ 0x156706270] using cpu capabilities: ARMv8 NEON\n",
      "[libx264 @ 0x156706270] profile High, level 3.2, 4:2:0, 8-bit\n",
      "[libx264 @ 0x156706270] 264 - core 164 r3095 baee400 - H.264/MPEG-4 AVC codec - Copyleft 2003-2022 - http://www.videolan.org/x264.html - options: cabac=1 ref=3 deblock=1:0:0 analyse=0x3:0x113 me=hex subme=7 psy=1 psy_rd=1.00:0.00 mixed_ref=1 me_range=16 chroma_me=1 trellis=1 8x8dct=1 cqm=0 deadzone=21,11 fast_pskip=1 chroma_qp_offset=-2 threads=15 lookahead_threads=2 sliced_threads=0 nr=0 decimate=1 interlaced=0 bluray_compat=0 constrained_intra=0 bframes=3 b_pyramid=2 b_adapt=1 b_bias=0 direct=1 weightb=1 open_gop=0 weightp=2 keyint=250 keyint_min=25 scenecut=40 intra_refresh=0 rc_lookahead=40 rc=crf mbtree=1 crf=23.0 qcomp=0.60 qpmin=0 qpmax=69 qpstep=4 ip_ratio=1.40 aq=1:1.00\n",
      "Output #0, mp4, to 'self_captures_cropped/gandalf_10.mp4':\n",
      "  Metadata:\n",
      "    major_brand     : isom\n",
      "    minor_version   : 512\n",
      "    compatible_brands: isomiso2avc1mp41\n",
      "    encoder         : Lavf59.27.100\n",
      "  Stream #0:0(und): Video: h264 (avc1 / 0x31637661), yuv420p(progressive), 1024x700, q=2-31, 60 fps, 15360 tbn (default)\n",
      "    Metadata:\n",
      "      handler_name    : VideoHandler\n",
      "      vendor_id       : [0][0][0][0]\n",
      "      encoder         : Lavc59.37.100 libx264\n",
      "    Side data:\n",
      "      cpb: bitrate max/min/avg: 0/0/0 buffer size: 0 vbv_delay: N/A\n"
     ]
    },
    {
     "name": "stderr",
     "output_type": "stream",
     "text": [
      "frame=  540 fps=0.0 q=-1.0 Lsize=     813kB time=00:00:08.95 bitrate= 744.0kbits/s speed=12.8x    \n",
      "video:806kB audio:0kB subtitle:0kB other streams:0kB global headers:0kB muxing overhead: 0.880860%\n",
      "[libx264 @ 0x156706270] frame I:3     Avg QP:11.75  size: 13082\n",
      "[libx264 @ 0x156706270] frame P:143   Avg QP:24.97  size:  3517\n",
      "[libx264 @ 0x156706270] frame B:394   Avg QP:31.16  size:   716\n",
      "[libx264 @ 0x156706270] consecutive B-frames:  0.7%  4.1%  5.6% 89.6%\n",
      "[libx264 @ 0x156706270] mb I  I16..4: 70.3% 22.0%  7.7%\n",
      "[libx264 @ 0x156706270] mb P  I16..4:  0.2%  1.0%  0.1%  P16..4:  4.9%  3.1%  2.4%  0.0%  0.0%    skip:88.3%\n",
      "[libx264 @ 0x156706270] mb B  I16..4:  0.0%  0.0%  0.0%  B16..8:  6.2%  1.5%  0.2%  direct: 0.1%  skip:91.9%  L0:40.9% L1:45.7% BI:13.5%\n",
      "[libx264 @ 0x156706270] 8x8 transform intra:43.5% inter:33.3%\n",
      "[libx264 @ 0x156706270] coded y,uvDC,uvAC intra: 7.5% 17.7% 15.9% inter: 1.0% 2.4% 1.8%\n",
      "[libx264 @ 0x156706270] i16 v,h,dc,p: 92%  4%  4%  0%\n",
      "[libx264 @ 0x156706270] i8 v,h,dc,ddl,ddr,vr,hd,vl,hu: 21%  5% 73%  0%  0%  0%  0%  0%  0%\n",
      "[libx264 @ 0x156706270] i4 v,h,dc,ddl,ddr,vr,hd,vl,hu: 23% 15% 34%  4%  4%  7%  4%  5%  5%\n",
      "[libx264 @ 0x156706270] i8c dc,h,v,p: 80%  9% 11%  1%\n",
      "[libx264 @ 0x156706270] Weighted P-Frames: Y:0.0% UV:0.0%\n",
      "[libx264 @ 0x156706270] ref P L0: 79.0%  8.3%  9.5%  3.3%\n",
      "[libx264 @ 0x156706270] ref B L0: 92.0%  7.2%  0.8%\n",
      "[libx264 @ 0x156706270] ref B L1: 97.4%  2.6%\n",
      "[libx264 @ 0x156706270] kb/s:732.81\n",
      "ffmpeg version 5.1.2 Copyright (c) 2000-2022 the FFmpeg developers\n",
      "  built with clang version 14.0.4\n",
      "  configuration: --prefix=/Users/runner/miniforge3/conda-bld/ffmpeg_1666310275774/_h_env_placehold_placehold_placehold_placehold_placehold_placehold_placehold_placehold_placehold_placehold_placehold_placehold_placehold_placehold_placehold_placehold_placehold_placehold_placehold_pl --cc=arm64-apple-darwin20.0.0-clang --cxx=arm64-apple-darwin20.0.0-clang++ --nm=arm64-apple-darwin20.0.0-nm --ar=arm64-apple-darwin20.0.0-ar --disable-doc --disable-openssl --enable-demuxer=dash --enable-hardcoded-tables --enable-libfreetype --enable-libfontconfig --enable-libopenh264 --enable-cross-compile --arch=arm64 --target-os=darwin --cross-prefix=arm64-apple-darwin20.0.0- --host-cc=/Users/runner/miniforge3/conda-bld/ffmpeg_1666310275774/_build_env/bin/x86_64-apple-darwin13.4.0-clang --enable-neon --enable-gnutls --enable-libmp3lame --enable-libvpx --enable-pthreads --enable-gpl --enable-libx264 --enable-libx265 --enable-libaom --enable-libsvtav1 --enable-libxml2 --enable-pic --enable-shared --disable-static --enable-version3 --enable-zlib --pkg-config=/Users/runner/miniforge3/conda-bld/ffmpeg_1666310275774/_build_env/bin/pkg-config\n",
      "  libavutil      57. 28.100 / 57. 28.100\n",
      "  libavcodec     59. 37.100 / 59. 37.100\n",
      "  libavformat    59. 27.100 / 59. 27.100\n",
      "  libavdevice    59.  7.100 / 59.  7.100\n",
      "  libavfilter     8. 44.100 /  8. 44.100\n",
      "  libswscale      6.  7.100 /  6.  7.100\n",
      "  libswresample   4.  7.100 /  4.  7.100\n",
      "  libpostproc    56.  6.100 / 56.  6.100\n",
      "Input #0, mov,mp4,m4a,3gp,3g2,mj2, from 'self_captures/grogu_10.mp4':\n",
      "  Metadata:\n",
      "    major_brand     : isom\n",
      "    minor_version   : 512\n",
      "    compatible_brands: isomiso2avc1mp41\n",
      "    encoder         : Lavf58.29.100\n",
      "  Duration: 00:00:09.00, start: 0.000000, bitrate: 857 kb/s\n",
      "  Stream #0:0[0x1](und): Video: h264 (High) (avc1 / 0x31637661), yuv420p(progressive), 1024x1024, 851 kb/s, 60 fps, 60 tbr, 15360 tbn (default)\n",
      "    Metadata:\n",
      "      handler_name    : VideoHandler\n",
      "      vendor_id       : [0][0][0][0]\n",
      "Stream mapping:\n",
      "  Stream #0:0 -> #0:0 (h264 (native) -> h264 (libx264))\n",
      "Press [q] to stop, [?] for help\n",
      "[libx264 @ 0x10fe04d80] using cpu capabilities: ARMv8 NEON\n",
      "[libx264 @ 0x10fe04d80] profile High, level 3.2, 4:2:0, 8-bit\n",
      "[libx264 @ 0x10fe04d80] 264 - core 164 r3095 baee400 - H.264/MPEG-4 AVC codec - Copyleft 2003-2022 - http://www.videolan.org/x264.html - options: cabac=1 ref=3 deblock=1:0:0 analyse=0x3:0x113 me=hex subme=7 psy=1 psy_rd=1.00:0.00 mixed_ref=1 me_range=16 chroma_me=1 trellis=1 8x8dct=1 cqm=0 deadzone=21,11 fast_pskip=1 chroma_qp_offset=-2 threads=15 lookahead_threads=2 sliced_threads=0 nr=0 decimate=1 interlaced=0 bluray_compat=0 constrained_intra=0 bframes=3 b_pyramid=2 b_adapt=1 b_bias=0 direct=1 weightb=1 open_gop=0 weightp=2 keyint=250 keyint_min=25 scenecut=40 intra_refresh=0 rc_lookahead=40 rc=crf mbtree=1 crf=23.0 qcomp=0.60 qpmin=0 qpmax=69 qpstep=4 ip_ratio=1.40 aq=1:1.00\n",
      "Output #0, mp4, to 'self_captures_cropped/grogu_10.mp4':\n",
      "  Metadata:\n",
      "    major_brand     : isom\n",
      "    minor_version   : 512\n",
      "    compatible_brands: isomiso2avc1mp41\n",
      "    encoder         : Lavf59.27.100\n",
      "  Stream #0:0(und): Video: h264 (avc1 / 0x31637661), yuv420p(progressive), 1024x700, q=2-31, 60 fps, 15360 tbn (default)\n",
      "    Metadata:\n",
      "      handler_name    : VideoHandler\n",
      "      vendor_id       : [0][0][0][0]\n",
      "      encoder         : Lavc59.37.100 libx264\n",
      "    Side data:\n",
      "      cpb: bitrate max/min/avg: 0/0/0 buffer size: 0 vbv_delay: N/A\n",
      "frame=  540 fps=0.0 q=-1.0 Lsize=     892kB time=00:00:08.95 bitrate= 816.9kbits/s speed=11.5x    \n",
      "video:885kB audio:0kB subtitle:0kB other streams:0kB global headers:0kB muxing overhead: 0.806122%\n",
      "[libx264 @ 0x10fe04d80] frame I:3     Avg QP:16.31  size: 15470\n",
      "[libx264 @ 0x10fe04d80] frame P:137   Avg QP:23.04  size:  3937\n",
      "[libx264 @ 0x10fe04d80] frame B:400   Avg QP:27.96  size:   800\n",
      "[libx264 @ 0x10fe04d80] consecutive B-frames:  0.6%  1.1%  2.8% 95.6%\n",
      "[libx264 @ 0x10fe04d80] mb I  I16..4: 47.0% 44.7%  8.3%\n",
      "[libx264 @ 0x10fe04d80] mb P  I16..4:  0.2%  0.8%  0.1%  P16..4:  5.3%  3.7%  3.1%  0.0%  0.0%    skip:86.8%\n",
      "[libx264 @ 0x10fe04d80] mb B  I16..4:  0.0%  0.0%  0.0%  B16..8:  6.7%  2.0%  0.4%  direct: 0.2%  skip:90.7%  L0:39.7% L1:47.2% BI:13.0%\n",
      "[libx264 @ 0x10fe04d80] 8x8 transform intra:53.7% inter:41.3%\n",
      "[libx264 @ 0x10fe04d80] coded y,uvDC,uvAC intra: 9.8% 20.0% 18.0% inter: 1.0% 2.4% 1.7%\n",
      "[libx264 @ 0x10fe04d80] i16 v,h,dc,p: 89%  6%  5%  0%\n",
      "[libx264 @ 0x10fe04d80] i8 v,h,dc,ddl,ddr,vr,hd,vl,hu: 32% 12% 54%  0%  0%  0%  0%  0%  0%\n",
      "[libx264 @ 0x10fe04d80] i4 v,h,dc,ddl,ddr,vr,hd,vl,hu: 20% 16% 31%  5%  7%  7%  5%  5%  5%\n",
      "[libx264 @ 0x10fe04d80] i8c dc,h,v,p: 80%  9% 11%  1%\n",
      "[libx264 @ 0x10fe04d80] Weighted P-Frames: Y:0.0% UV:0.0%\n",
      "[libx264 @ 0x10fe04d80] ref P L0: 74.8%  9.3% 11.3%  4.7%\n",
      "[libx264 @ 0x10fe04d80] ref B L0: 91.0%  7.7%  1.3%\n",
      "[libx264 @ 0x10fe04d80] ref B L1: 96.4%  3.6%\n",
      "[libx264 @ 0x10fe04d80] kb/s:805.22\n",
      "ffmpeg version 5.1.2 Copyright (c) 2000-2022 the FFmpeg developers\n",
      "  built with clang version 14.0.4\n",
      "  configuration: --prefix=/Users/runner/miniforge3/conda-bld/ffmpeg_1666310275774/_h_env_placehold_placehold_placehold_placehold_placehold_placehold_placehold_placehold_placehold_placehold_placehold_placehold_placehold_placehold_placehold_placehold_placehold_placehold_placehold_pl --cc=arm64-apple-darwin20.0.0-clang --cxx=arm64-apple-darwin20.0.0-clang++ --nm=arm64-apple-darwin20.0.0-nm --ar=arm64-apple-darwin20.0.0-ar --disable-doc --disable-openssl --enable-demuxer=dash --enable-hardcoded-tables --enable-libfreetype --enable-libfontconfig --enable-libopenh264 --enable-cross-compile --arch=arm64 --target-os=darwin --cross-prefix=arm64-apple-darwin20.0.0- --host-cc=/Users/runner/miniforge3/conda-bld/ffmpeg_1666310275774/_build_env/bin/x86_64-apple-darwin13.4.0-clang --enable-neon --enable-gnutls --enable-libmp3lame --enable-libvpx --enable-pthreads --enable-gpl --enable-libx264 --enable-libx265 --enable-libaom --enable-libsvtav1 --enable-libxml2 --enable-pic --enable-shared --disable-static --enable-version3 --enable-zlib --pkg-config=/Users/runner/miniforge3/conda-bld/ffmpeg_1666310275774/_build_env/bin/pkg-config\n",
      "  libavutil      57. 28.100 / 57. 28.100\n",
      "  libavcodec     59. 37.100 / 59. 37.100\n",
      "  libavformat    59. 27.100 / 59. 27.100\n",
      "  libavdevice    59.  7.100 / 59.  7.100\n",
      "  libavfilter     8. 44.100 /  8. 44.100\n",
      "  libswscale      6.  7.100 /  6.  7.100\n",
      "  libswresample   4.  7.100 /  4.  7.100\n",
      "  libpostproc    56.  6.100 / 56.  6.100\n",
      "Input #0, mov,mp4,m4a,3gp,3g2,mj2, from 'self_captures/guy_15.mp4':\n",
      "  Metadata:\n",
      "    major_brand     : isom\n",
      "    minor_version   : 512\n",
      "    compatible_brands: isomiso2avc1mp41\n",
      "    encoder         : Lavf58.29.100\n",
      "  Duration: 00:00:09.00, start: 0.000000, bitrate: 582 kb/s\n",
      "  Stream #0:0[0x1](und): Video: h264 (High) (avc1 / 0x31637661), yuv420p(progressive), 1024x1024, 575 kb/s, 60 fps, 60 tbr, 15360 tbn (default)\n",
      "    Metadata:\n",
      "      handler_name    : VideoHandler\n",
      "      vendor_id       : [0][0][0][0]\n",
      "Stream mapping:\n",
      "  Stream #0:0 -> #0:0 (h264 (native) -> h264 (libx264))\n",
      "Press [q] to stop, [?] for help\n",
      "[libx264 @ 0x147606b70] using cpu capabilities: ARMv8 NEON\n",
      "[libx264 @ 0x147606b70] profile High, level 3.2, 4:2:0, 8-bit\n",
      "[libx264 @ 0x147606b70] 264 - core 164 r3095 baee400 - H.264/MPEG-4 AVC codec - Copyleft 2003-2022 - http://www.videolan.org/x264.html - options: cabac=1 ref=3 deblock=1:0:0 analyse=0x3:0x113 me=hex subme=7 psy=1 psy_rd=1.00:0.00 mixed_ref=1 me_range=16 chroma_me=1 trellis=1 8x8dct=1 cqm=0 deadzone=21,11 fast_pskip=1 chroma_qp_offset=-2 threads=15 lookahead_threads=2 sliced_threads=0 nr=0 decimate=1 interlaced=0 bluray_compat=0 constrained_intra=0 bframes=3 b_pyramid=2 b_adapt=1 b_bias=0 direct=1 weightb=1 open_gop=0 weightp=2 keyint=250 keyint_min=25 scenecut=40 intra_refresh=0 rc_lookahead=40 rc=crf mbtree=1 crf=23.0 qcomp=0.60 qpmin=0 qpmax=69 qpstep=4 ip_ratio=1.40 aq=1:1.00\n",
      "Output #0, mp4, to 'self_captures_cropped/guy_15.mp4':\n",
      "  Metadata:\n",
      "    major_brand     : isom\n",
      "    minor_version   : 512\n",
      "    compatible_brands: isomiso2avc1mp41\n",
      "    encoder         : Lavf59.27.100\n",
      "  Stream #0:0(und): Video: h264 (avc1 / 0x31637661), yuv420p(progressive), 1024x700, q=2-31, 60 fps, 15360 tbn (default)\n",
      "    Metadata:\n",
      "      handler_name    : VideoHandler\n",
      "      vendor_id       : [0][0][0][0]\n",
      "      encoder         : Lavc59.37.100 libx264\n",
      "    Side data:\n",
      "      cpb: bitrate max/min/avg: 0/0/0 buffer size: 0 vbv_delay: N/A\n"
     ]
    },
    {
     "name": "stderr",
     "output_type": "stream",
     "text": [
      "frame=  540 fps=0.0 q=-1.0 Lsize=     609kB time=00:00:08.95 bitrate= 557.8kbits/s speed=13.3x    \n",
      "video:602kB audio:0kB subtitle:0kB other streams:0kB global headers:0kB muxing overhead: 1.186307%\n",
      "[libx264 @ 0x147606b70] frame I:3     Avg QP:14.83  size: 10607\n",
      "[libx264 @ 0x147606b70] frame P:140   Avg QP:22.66  size:  2570\n",
      "[libx264 @ 0x147606b70] frame B:397   Avg QP:28.10  size:   565\n",
      "[libx264 @ 0x147606b70] consecutive B-frames:  0.9%  2.6%  1.7% 94.8%\n",
      "[libx264 @ 0x147606b70] mb I  I16..4: 60.7% 33.5%  5.8%\n",
      "[libx264 @ 0x147606b70] mb P  I16..4:  0.2%  0.6%  0.1%  P16..4:  4.3%  2.6%  2.0%  0.0%  0.0%    skip:90.3%\n",
      "[libx264 @ 0x147606b70] mb B  I16..4:  0.0%  0.0%  0.0%  B16..8:  5.1%  1.3%  0.2%  direct: 0.1%  skip:93.3%  L0:42.6% L1:46.5% BI:10.9%\n",
      "[libx264 @ 0x147606b70] 8x8 transform intra:43.8% inter:41.0%\n",
      "[libx264 @ 0x147606b70] coded y,uvDC,uvAC intra: 7.3% 16.5% 14.8% inter: 0.6% 1.9% 1.3%\n",
      "[libx264 @ 0x147606b70] i16 v,h,dc,p: 93%  3%  4%  0%\n",
      "[libx264 @ 0x147606b70] i8 v,h,dc,ddl,ddr,vr,hd,vl,hu: 26%  8% 63%  0%  1%  0%  0%  0%  0%\n",
      "[libx264 @ 0x147606b70] i4 v,h,dc,ddl,ddr,vr,hd,vl,hu: 21% 15% 36%  5%  6%  5%  4%  5%  4%\n",
      "[libx264 @ 0x147606b70] i8c dc,h,v,p: 82%  8%  9%  1%\n",
      "[libx264 @ 0x147606b70] Weighted P-Frames: Y:0.0% UV:0.0%\n",
      "[libx264 @ 0x147606b70] ref P L0: 76.3%  8.1% 11.8%  3.8%\n",
      "[libx264 @ 0x147606b70] ref B L0: 91.7%  7.4%  0.8%\n",
      "[libx264 @ 0x147606b70] ref B L1: 97.7%  2.3%\n",
      "[libx264 @ 0x147606b70] kb/s:547.57\n",
      "ffmpeg version 5.1.2 Copyright (c) 2000-2022 the FFmpeg developers\n",
      "  built with clang version 14.0.4\n",
      "  configuration: --prefix=/Users/runner/miniforge3/conda-bld/ffmpeg_1666310275774/_h_env_placehold_placehold_placehold_placehold_placehold_placehold_placehold_placehold_placehold_placehold_placehold_placehold_placehold_placehold_placehold_placehold_placehold_placehold_placehold_pl --cc=arm64-apple-darwin20.0.0-clang --cxx=arm64-apple-darwin20.0.0-clang++ --nm=arm64-apple-darwin20.0.0-nm --ar=arm64-apple-darwin20.0.0-ar --disable-doc --disable-openssl --enable-demuxer=dash --enable-hardcoded-tables --enable-libfreetype --enable-libfontconfig --enable-libopenh264 --enable-cross-compile --arch=arm64 --target-os=darwin --cross-prefix=arm64-apple-darwin20.0.0- --host-cc=/Users/runner/miniforge3/conda-bld/ffmpeg_1666310275774/_build_env/bin/x86_64-apple-darwin13.4.0-clang --enable-neon --enable-gnutls --enable-libmp3lame --enable-libvpx --enable-pthreads --enable-gpl --enable-libx264 --enable-libx265 --enable-libaom --enable-libsvtav1 --enable-libxml2 --enable-pic --enable-shared --disable-static --enable-version3 --enable-zlib --pkg-config=/Users/runner/miniforge3/conda-bld/ffmpeg_1666310275774/_build_env/bin/pkg-config\n",
      "  libavutil      57. 28.100 / 57. 28.100\n",
      "  libavcodec     59. 37.100 / 59. 37.100\n",
      "  libavformat    59. 27.100 / 59. 27.100\n",
      "  libavdevice    59.  7.100 / 59.  7.100\n",
      "  libavfilter     8. 44.100 /  8. 44.100\n",
      "  libswscale      6.  7.100 /  6.  7.100\n",
      "  libswresample   4.  7.100 /  4.  7.100\n",
      "  libpostproc    56.  6.100 / 56.  6.100\n",
      "Input #0, mov,mp4,m4a,3gp,3g2,mj2, from 'self_captures/scooter.mp4':\n",
      "  Metadata:\n",
      "    major_brand     : isom\n",
      "    minor_version   : 512\n",
      "    compatible_brands: isomiso2avc1mp41\n",
      "    encoder         : Lavf58.29.100\n",
      "  Duration: 00:00:09.00, start: 0.000000, bitrate: 1247 kb/s\n",
      "  Stream #0:0[0x1](und): Video: h264 (High) (avc1 / 0x31637661), yuv420p(progressive), 1024x1024, 1241 kb/s, 60 fps, 60 tbr, 15360 tbn (default)\n",
      "    Metadata:\n",
      "      handler_name    : VideoHandler\n",
      "      vendor_id       : [0][0][0][0]\n",
      "Stream mapping:\n",
      "  Stream #0:0 -> #0:0 (h264 (native) -> h264 (libx264))\n",
      "Press [q] to stop, [?] for help\n",
      "[libx264 @ 0x14be06b70] using cpu capabilities: ARMv8 NEON\n",
      "[libx264 @ 0x14be06b70] profile High, level 3.2, 4:2:0, 8-bit\n",
      "[libx264 @ 0x14be06b70] 264 - core 164 r3095 baee400 - H.264/MPEG-4 AVC codec - Copyleft 2003-2022 - http://www.videolan.org/x264.html - options: cabac=1 ref=3 deblock=1:0:0 analyse=0x3:0x113 me=hex subme=7 psy=1 psy_rd=1.00:0.00 mixed_ref=1 me_range=16 chroma_me=1 trellis=1 8x8dct=1 cqm=0 deadzone=21,11 fast_pskip=1 chroma_qp_offset=-2 threads=15 lookahead_threads=2 sliced_threads=0 nr=0 decimate=1 interlaced=0 bluray_compat=0 constrained_intra=0 bframes=3 b_pyramid=2 b_adapt=1 b_bias=0 direct=1 weightb=1 open_gop=0 weightp=2 keyint=250 keyint_min=25 scenecut=40 intra_refresh=0 rc_lookahead=40 rc=crf mbtree=1 crf=23.0 qcomp=0.60 qpmin=0 qpmax=69 qpstep=4 ip_ratio=1.40 aq=1:1.00\n",
      "Output #0, mp4, to 'self_captures_cropped/scooter.mp4':\n",
      "  Metadata:\n",
      "    major_brand     : isom\n",
      "    minor_version   : 512\n",
      "    compatible_brands: isomiso2avc1mp41\n",
      "    encoder         : Lavf59.27.100\n",
      "  Stream #0:0(und): Video: h264 (avc1 / 0x31637661), yuv420p(progressive), 1024x700, q=2-31, 60 fps, 15360 tbn (default)\n",
      "    Metadata:\n",
      "      handler_name    : VideoHandler\n",
      "      vendor_id       : [0][0][0][0]\n",
      "      encoder         : Lavc59.37.100 libx264\n",
      "    Side data:\n",
      "      cpb: bitrate max/min/avg: 0/0/0 buffer size: 0 vbv_delay: N/A\n",
      "frame=  540 fps=0.0 q=-1.0 Lsize=    1270kB time=00:00:08.95 bitrate=1162.8kbits/s speed=11.1x    \n",
      "video:1263kB audio:0kB subtitle:0kB other streams:0kB global headers:0kB muxing overhead: 0.562474%\n",
      "[libx264 @ 0x14be06b70] frame I:3     Avg QP:16.67  size: 22892\n",
      "[libx264 @ 0x14be06b70] frame P:147   Avg QP:25.24  size:  5431\n",
      "[libx264 @ 0x14be06b70] frame B:390   Avg QP:30.72  size:  1092\n",
      "[libx264 @ 0x14be06b70] consecutive B-frames:  0.6%  7.4%  6.1% 85.9%\n",
      "[libx264 @ 0x14be06b70] mb I  I16..4: 39.4% 49.2% 11.4%\n",
      "[libx264 @ 0x14be06b70] mb P  I16..4:  0.3%  1.5%  0.1%  P16..4:  6.1%  5.1%  5.7%  0.0%  0.0%    skip:81.2%\n",
      "[libx264 @ 0x14be06b70] mb B  I16..4:  0.0%  0.0%  0.0%  B16..8:  9.2%  3.8%  0.6%  direct: 0.2%  skip:86.2%  L0:42.6% L1:46.4% BI:11.0%\n",
      "[libx264 @ 0x14be06b70] 8x8 transform intra:62.5% inter:41.7%\n",
      "[libx264 @ 0x14be06b70] coded y,uvDC,uvAC intra: 9.4% 22.7% 20.0% inter: 1.5% 3.9% 2.7%\n",
      "[libx264 @ 0x14be06b70] i16 v,h,dc,p: 86%  8%  6%  0%\n",
      "[libx264 @ 0x14be06b70] i8 v,h,dc,ddl,ddr,vr,hd,vl,hu: 26%  5% 67%  0%  0%  0%  0%  0%  0%\n",
      "[libx264 @ 0x14be06b70] i4 v,h,dc,ddl,ddr,vr,hd,vl,hu: 22% 16% 33%  5%  5%  5%  5%  4%  4%\n",
      "[libx264 @ 0x14be06b70] i8c dc,h,v,p: 75% 10% 15%  1%\n",
      "[libx264 @ 0x14be06b70] Weighted P-Frames: Y:0.0% UV:0.0%\n",
      "[libx264 @ 0x14be06b70] ref P L0: 77.9%  8.9% 10.0%  3.2%\n",
      "[libx264 @ 0x14be06b70] ref B L0: 93.6%  5.8%  0.6%\n",
      "[libx264 @ 0x14be06b70] ref B L1: 97.9%  2.1%\n",
      "[libx264 @ 0x14be06b70] kb/s:1149.23\n"
     ]
    }
   ],
   "source": [
    "deltas = []\n",
    "for path in tqdm(video_paths):\n",
    "    min_y = np.inf\n",
    "    max_y = 0\n",
    "    for frame in imageio.imiter(path):\n",
    "        mask = np.all(frame < 240, axis=2)\n",
    "        x1, y1, x2, y2 = bbox(mask)\n",
    "        min_y = min(y1, min_y)\n",
    "        max_y = max(y2, max_y)\n",
    "\n",
    "    m = (min_y + max_y) / 2\n",
    "    \n",
    "    start = max(m - d, 0)\n",
    "    end = start + 2 * d\n",
    "    \n",
    "    new_bbox = [0, start, image_size, end]\n",
    "    \n",
    "    new_path = osp.join(output_dir, osp.basename(path))\n",
    "    crop_video(path, new_path, new_bbox)"
   ]
  },
  {
   "cell_type": "code",
   "execution_count": 61,
   "id": "6e8c1bd1",
   "metadata": {},
   "outputs": [
    {
     "data": {
      "text/plain": [
       "['101_11750_20715_S0_N7.jpg',\n",
       " '101_11754_20739_S0_N7.jpg',\n",
       " '112_13277_23636_S0_N7.jpg',\n",
       " '120_14058_28338_S0_N4.jpg',\n",
       " '160_17613_33333_S0_N4.jpg',\n",
       " '187_20190_36737_S0_N7.jpg',\n",
       " '187_20196_37207_S0_N7.jpg',\n",
       " '188_20319_36755_S0_N4.jpg',\n",
       " '189_20388_37651_S0_N4.jpg',\n",
       " '190_20479_37788_S0_N6.jpg',\n",
       " '201_21613_43652_S0_N6.jpg',\n",
       " '252_27050_54275_S0_N4.jpg',\n",
       " '34_1490_4763_S0_N4.jpg',\n",
       " '350_36647_68462_S0_N4.jpg',\n",
       " '415_57123_110212_S0_N6.jpg',\n",
       " '415_57125_110159_S0_N6.jpg',\n",
       " '434_61617_120791_S0_N4.jpg',\n",
       " '575_84755_167725_S0_N4.jpg']"
      ]
     },
     "execution_count": 61,
     "metadata": {},
     "output_type": "execute_result"
    }
   ],
   "source": [
    "image_names = sorted([osp.basename(p) for p in sorted(glob(osp.join(video_dir, \"*.jpg\")))])\n",
    "image_names"
   ]
  },
  {
   "cell_type": "code",
   "execution_count": null,
   "id": "4d8c4ab3",
   "metadata": {},
   "outputs": [],
   "source": []
  }
 ],
 "metadata": {
  "kernelspec": {
   "display_name": "Python 3 (ipykernel)",
   "language": "python",
   "name": "python3"
  },
  "language_info": {
   "codemirror_mode": {
    "name": "ipython",
    "version": 3
   },
   "file_extension": ".py",
   "mimetype": "text/x-python",
   "name": "python",
   "nbconvert_exporter": "python",
   "pygments_lexer": "ipython3",
   "version": "3.8.13"
  }
 },
 "nbformat": 4,
 "nbformat_minor": 5
}
